<?xml version="1.0" encoding="utf-8"?>
<!-- Generator: Adobe Illustrator 21.1.0, SVG Export Plug-In . SVG Version: 6.00 Build 0)  -->
<svg version="1.1" id="Layer_1" xmlns="http://www.w3.org/2000/svg" xmlns:xlink="http://www.w3.org/1999/xlink" x="0px" y="0px"
	 viewBox="0 0 512 512" style="enable-background:new 0 0 512 512;" xml:space="preserve">
<style type="text/css">
	.st0{fill:#678C56;}
	.st1{fill:#B8D797;}
</style>
<path class="st0" d="M159.3,104.3c-57.7,0-104.5,46.8-104.5,104.5C54.7,332.4,256,503.6,256,503.6l21.8-167.2L256,169.2
	C240.4,131.1,203,104.3,159.3,104.3z"/>
<path class="st1" d="M352.7,104.3c-43.7,0-81.1,26.8-96.7,64.9l0,334.4c0,0,201.3-171.1,201.3-294.7
	C457.3,151.1,410.5,104.3,352.7,104.3z"/>
<path d="M352.7,96.4c-35.2,0-67.6,16.2-88.6,42.9V8.2c0-4.5-3.7-8.2-8.2-8.2c-4.5,0-8.2,3.7-8.2,8.2v131.2
	c-21-26.7-53.3-42.9-88.6-42.9C97.1,96.4,46.6,147,46.6,209.1c0,53.3,34.5,120.2,102.6,199c50.1,58,101,101.5,101.5,101.9
	c1.5,1.3,3.4,1.9,5.3,1.9c1.9,0,3.8-0.6,5.3-1.9c0.5-0.4,51.4-43.9,101.5-101.9c68.1-78.8,102.6-145.8,102.6-199
	C465.4,147,414.9,96.4,352.7,96.4z M256,493C224.4,465,62.9,316.5,62.9,209.1c0-53.1,43.2-96.4,96.4-96.4c37.4,0,71,21.4,87,54.9
	L116.2,297.7c-3.2,3.2-3.2,8.4,0,11.6c3.2,3.2,8.4,3.2,11.6,0l120.1-120.1v136.6l-62.5,62.5c-3.2,3.2-3.2,8.4,0,11.6
	c3.2,3.2,8.4,3.2,11.6,0l50.9-50.9v111c0,4.5,3.7,8.2,8.2,8.2c4.5,0,8.2-3.7,8.2-8.2V348.9l50.9,50.9c1.6,1.6,3.7,2.4,5.8,2.4
	s4.2-0.8,5.8-2.4c3.2-3.2,3.2-8.4,0-11.6l-62.4-62.4V189.2l120.1,120.1c1.6,1.6,3.7,2.4,5.8,2.4c2.1,0,4.2-0.8,5.8-2.4
	c3.2-3.2,3.2-8.4,0-11.6L265.8,167.6c16-33.5,49.5-54.9,87-54.9c53.1,0,96.4,43.2,96.4,96.4C449.1,316.5,287.6,465,256,493z"/>
</svg>
